<svg xmlns="http://www.w3.org/2000/svg" version="1.0" width="300.000000pt" height="300.000000pt" viewBox="0 0 300.000000 300.000000" preserveAspectRatio="xMidYMid meet">
<metadata fill="#ffffff">
Created by potrace 1.10, written by Peter Selinger 2001-2011
</metadata>
<g transform="translate(0.000000,300.000000) scale(0.100000,-0.100000)" fill="#ffffff" stroke="none">
<path d="M2282 2327 l-212 -212 -42 3 c-42 3 -45 1 -116 -71 l-73 -74 -38 10 c-32 9 -44 7 -73 -9 -19 -10 -194 -182 -389 -381 l-354 -363 -47 50 c-49 52 -65 60 -74 35 -4 -9 33 -52 106 -122 l111 -108 -90 -90 -91 -90 -63 63 c-34 34 -68 62 -74 62 -32 0 -18 -27 47 -88 l71 -67 -140 -140 -141 -139 -38 37 c-38 37 -72 48 -72 24 0 -15 191 -207 207 -207 27 0 18 28 -23 70 l-43 45 138 142 139 143 59 -63 c71 -76 78 -81 92 -63 9 10 -4 28 -59 82 l-69 69 88 91 89 91 98 -98 c54 -55 104 -99 111 -99 31 0 21 26 -28 76 l-53 54 366 368 c254 254 369 376 374 396 4 16 2 43 -5 62 -11 32 -11 33 65 110 74 76 76 80 72 119 l-5 41 203 209 c112 115 204 214 204 221 0 7 -4 15 -8 18 -5 3 -104 -90 -220 -207z m-224 -259 c25 -25 11 -54 -58 -123 -38 -38 -71 -67 -72 -64 -2 2 -16 18 -31 35 l-28 31 68 66 c67 66 97 79 121 55z m-250 -132 c32 -17 105 -91 122 -124 16 -32 7 -62 -28 -95 l-29 -28 -97 97 -96 98 22 24 c21 22 51 40 71 41 4 1 20 -5 35 -13z m-58 -181 l95 -95 -36 -35 -35 -36 -97 98 -96 98 31 32 c18 18 35 33 38 33 3 0 48 -43 100 -95z m-98 -99 l95 -95 -36 -35 -36 -36 -96 96 -96 96 36 34 c20 18 36 34 37 34 1 0 44 -42 96 -94z m-94 -99 l92 -93 -38 -37 -39 -38 -94 95 -95 95 35 36 c20 19 38 35 41 35 3 0 47 -42 98 -93z m-50 -233 l-39 -40 -94 95 -94 96 36 37 37 38 96 -93 97 -92 -39 -41z m-106 -107 l-39 -39 -95 96 -94 95 39 39 38 39 95 -96 94 -96 -38 -38z m-127 -127 c-33 -33 -64 -60 -70 -60 -6 0 -24 13 -40 30 l-29 30 23 24 c15 16 21 31 17 42 -6 15 -10 14 -36 -11 l-30 -29 -35 34 c-48 47 -45 70 17 136 l53 54 95 -95 95 -95 -60 -60z" fill="#ffffff"/>
<path d="M1398 2300 c-120 -21 -263 -79 -353 -144 -55 -39 -195 -175 -195 -188 0 -5 7 -11 15 -14 9 -4 33 14 66 50 100 109 256 205 394 241 90 24 236 29 325 12 79 -16 90 -15 90 8 0 17 -15 22 -105 35 -80 11 -169 11 -237 0z" fill="#ffffff"/>
<path d="M1411 2170 c-19 -11 -9 -45 14 -45 13 0 21 8 23 21 3 23 -17 37 -37 24z" fill="#ffffff"/>
<path d="M1762 2148 c4 -30 43 -33 43 -3 0 13 -8 21 -23 23 -20 3 -23 0 -20 -20z" fill="#ffffff"/>
<path d="M1079 2044 c-10 -12 -9 -18 3 -31 19 -18 38 -10 38 17 0 24 -25 33 -41 14z" fill="#ffffff"/>
<path d="M1252 2013 c3 -16 19 -18 132 -21 124 -3 165 5 150 29 -3 5 -68 9 -145 9 -128 0 -140 -2 -137 -17z" fill="#ffffff"/>
<path d="M915 1909 c-15 -24 17 -29 161 -27 125 3 149 5 149 18 0 13 -25 15 -152 18 -103 2 -154 -1 -158 -9z" fill="#ffffff"/>
<path d="M785 1870 c-19 -37 -19 -60 0 -60 18 0 49 56 41 76 -9 22 -24 16 -41 -16z" fill="#ffffff"/>
<path d="M1260 1854 c0 -18 -4 -24 -13 -21 -19 7 -41 -8 -33 -22 4 -6 16 -11 26 -11 11 0 20 -8 22 -20 4 -27 22 -27 26 0 2 14 11 20 28 20 15 0 24 6 24 15 0 9 -9 15 -25 15 -20 0 -25 5 -25 25 0 16 -6 25 -15 25 -9 0 -15 -10 -15 -26z" fill="#ffffff"/>
<path d="M2110 1841 c0 -27 19 -36 37 -18 18 18 9 37 -18 37 -12 0 -19 -7 -19 -19z" fill="#ffffff"/>
<path d="M2190 1744 c0 -9 -9 -18 -20 -21 -23 -6 -27 -23 -6 -23 7 0 16 -9 19 -20 3 -11 10 -20 17 -20 7 0 14 9 17 20 3 11 12 20 20 20 8 0 13 5 11 11 -2 6 -8 10 -13 9 -5 -1 -12 8 -17 19 -9 25 -28 28 -28 5z" fill="#ffffff"/>
<path d="M667 1724 c-4 -4 -7 -13 -7 -21 0 -10 40 -13 201 -13 186 0 200 1 197 18 -3 15 -22 17 -194 20 -105 1 -193 -1 -197 -4z" fill="#ffffff"/>
<path d="M697 1633 c-15 -14 -7 -43 12 -43 26 0 36 17 21 35 -14 16 -23 19 -33 8z" fill="#ffffff"/>
<path d="M2043 1603 c-16 -6 -17 -39 -2 -49 6 -3 18 1 27 10 14 14 14 18 2 30 -8 7 -21 12 -27 9z" fill="#ffffff"/>
<path d="M1113 1584 c-3 -8 -1 -20 5 -26 16 -16 42 -2 42 22 0 24 -38 28 -47 4z" fill="#ffffff"/>
<path d="M675 1490 c-18 -29 25 -240 49 -240 22 0 24 10 10 58 -8 26 -17 78 -21 116 -8 65 -22 91 -38 66z" fill="#ffffff"/>
<path d="M792 1473 c3 -16 17 -18 118 -18 101 0 115 2 118 18 3 15 -8 17 -118 17 -110 0 -121 -2 -118 -17z" fill="#ffffff"/>
<path d="M1976 1482 c-2 -4 -1 -13 3 -20 6 -9 53 -12 187 -10 161 3 179 5 182 21 3 16 -11 17 -182 17 -102 0 -187 -4 -190 -8z" fill="#ffffff"/>
<path d="M1730 1322 c-17 -6 -11 -30 8 -35 25 -7 574 -8 595 -1 16 5 25 34 10 34 -136 3 -606 4 -613 2z" fill="#ffffff"/>
<path d="M745 1191 c-6 -11 33 -81 46 -81 19 0 20 30 3 59 -18 31 -38 39 -49 22z" fill="#ffffff"/>
<path d="M1660 1160 c0 -19 7 -20 245 -20 238 0 245 1 245 20 0 19 -7 20 -245 20 -238 0 -245 -1 -245 -20z" fill="#ffffff"/>
<path d="M1484 1115 c-8 -20 3 -48 18 -43 6 2 16 12 22 21 8 13 7 20 -4 27 -21 14 -30 12 -36 -5z" fill="#ffffff"/>
<path d="M2157 1078 c-64 -105 -89 -137 -162 -206 -119 -113 -262 -183 -410 -201 -38 -5 -51 -10 -53 -25 -4 -18 1 -19 55 -13 161 17 330 103 458 231 76 78 145 176 149 212 2 26 -21 28 -37 2z" fill="#ffffff"/>
<path d="M1534 989 c-15 -25 21 -29 237 -27 204 3 224 5 227 21 3 16 -13 17 -227 17 -155 0 -232 -4 -237 -11z" fill="#ffffff"/>
<path d="M1784 865 c-4 -9 -2 -21 4 -27 15 -15 44 -1 40 19 -4 23 -36 29 -44 8z" fill="#ffffff"/>
<path d="M1492 848 c2 -15 10 -23 23 -23 13 0 21 8 23 23 3 18 -1 22 -23 22 -22 0 -26 -4 -23 -22z" fill="#ffffff"/>
<path d="M1375 759 c-15 -23 16 -30 136 -27 102 3 124 6 124 18 0 12 -22 15 -127 18 -85 2 -129 -1 -133 -9z" fill="#ffffff"/>
<path d="M1222 694 c7 -38 243 -81 255 -47 3 7 -6 14 -19 16 -39 7 -191 38 -216 44 -19 5 -23 2 -20 -13z" fill="#ffffff"/>
</g>
</svg>